<svg id="Group_12" data-name="Group 12" xmlns="http://www.w3.org/2000/svg" width="28.62" height="18.131" viewBox="0 0 28.62 18.131">
  <path id="Path_32" data-name="Path 32" d="M45.3,40.105c-6.808,0-6.817,6.782-6.817,6.817,0,0-.466,6.791,6.817,6.791,0,0,6.074.345,6.074-4.726H48.259s.1,1.909-2.851,1.909a2.883,2.883,0,0,1-3.119-3.084h9.193S52.493,40.105,45.3,40.105Zm-3.05,5.331a3.168,3.168,0,0,1,3.119-2.73,2.63,2.63,0,0,1,2.7,2.73Zm-7.792-1.745a3.077,3.077,0,0,0,2.7-3.378c0-3.17-2.212-4.726-5.02-4.726H22.91V53.341h9.235s5.642.173,5.642-5.244C37.788,48.1,38.03,43.691,34.462,43.691ZM26.98,38.74h5.166s1.253,0,1.253,1.849-.734,2.117-1.573,2.117H26.98Zm4.907,11.448H26.98V45.436h5.166s1.875-.017,1.866,2.445C34.012,49.955,32.622,50.171,31.887,50.188Zm9.6-13.556v2.186h7.327V36.632Z" transform="translate(-22.91 -35.587)" fill="#333"/>
</svg>
