<svg id="Group_14" data-name="Group 14" xmlns="http://www.w3.org/2000/svg" width="19.593" height="19.568" viewBox="0 0 19.593 19.568">
  <path id="Path_34" data-name="Path 34" d="M30.222,20.472a9.784,9.784,0,1,0,9.8,9.784,9.8,9.8,0,0,0-9.8-9.784Zm6.446,4.618A8.215,8.215,0,0,1,38.5,30.13a20.444,20.444,0,0,0-3.828-.37,15.474,15.474,0,0,0-1.887.11c-.054-.132-.108-.263-.165-.395-.166-.391-.345-.779-.531-1.161a11.273,11.273,0,0,0,4.583-3.224ZM30.222,22a8.248,8.248,0,0,1,5.453,2.053A9.449,9.449,0,0,1,31.4,26.99a44.736,44.736,0,0,0-3.044-4.774A8.262,8.262,0,0,1,30.222,22Zm-3.555.8A53.456,53.456,0,0,1,29.7,27.52a31.326,31.326,0,0,1-7.481,1h-.081a8.3,8.3,0,0,1,4.534-5.711Zm-4.721,7.464q0-.1,0-.2h.217a30.982,30.982,0,0,0,8.266-1.175c.223.436.435.879.633,1.321-.093.027-.184.053-.275.083a13.235,13.235,0,0,0-6.76,5.451,8.224,8.224,0,0,1-2.084-5.477Zm8.277,8.265a8.242,8.242,0,0,1-5.048-1.721,11.434,11.434,0,0,1,6.486-5.131l.009,0a34.444,34.444,0,0,1,1.75,6.213,8.23,8.23,0,0,1-3.2.642Zm4.688-1.457a36.158,36.158,0,0,0-1.586-5.8,10.852,10.852,0,0,1,1.666-.125,12.3,12.3,0,0,1,3.4.475,8.281,8.281,0,0,1-3.477,5.454Z" transform="translate(-20.426 -20.472)" fill="#333"/>
</svg>
