<svg id="Group_13" data-name="Group 13" xmlns="http://www.w3.org/2000/svg" width="20.607" height="19.692" viewBox="0 0 20.607 19.692">
  <path id="Path_33" data-name="Path 33" d="M47.675,36.041v7.62H43.257V36.552c0-1.785-.638-3-2.237-3a2.416,2.416,0,0,0-2.266,1.615,3.024,3.024,0,0,0-.146,1.077v7.421H34.19s.059-12.041,0-13.287h4.418v1.883c-.009.015-.021.029-.029.043h.029v-.043a4.387,4.387,0,0,1,3.982-2.195c2.907,0,5.086,1.9,5.086,5.979ZM29.568,23.969a2.3,2.3,0,1,0-.058,4.592h.029a2.3,2.3,0,1,0,.029-4.592ZM27.331,43.661h4.416V30.374H27.331Z" transform="translate(-27.068 -23.969)" fill="#333"/>
</svg>
