<svg xmlns="http://www.w3.org/2000/svg" width="210" height="131" viewBox="0 0 210 131">
  <g id="Group_30" data-name="Group 30" transform="translate(-1442 289)">
    <rect id="Rectangle_43" data-name="Rectangle 43" width="210" height="131" transform="translate(1442 -289)" fill="none"/>
    <g id="Group_29" data-name="Group 29" transform="translate(20 -304)">
      <g id="Group_19" data-name="Group 19" transform="translate(1439 33)">
        <g id="Group_18" data-name="Group 18">
          <path id="Path_35" data-name="Path 35" d="M445.8,168.734H401.689V97.691h11.028v61.492H445.8Z" transform="translate(-401.689 -97.691)" fill="#333"/>
          <path id="Path_36" data-name="Path 36" d="M443.169,114.362c21.12,0,33.626,13,33.626,35.4,0,22.451-12.457,35.644-33.626,35.644h-25.06V114.362Zm-14.032,61.492h13c15.064,0,23.385-9.207,23.385-26,0-16.738-8.37-25.994-23.385-25.994h-13Z" transform="translate(-393.836 -89.718)" fill="#333"/>
        </g>
        <rect id="Rectangle_29" data-name="Rectangle 29" width="11.028" height="9.551" transform="translate(24.274 61.492)" fill="#3a3ad8"/>
      </g>
      <g id="Group_20" data-name="Group 20" transform="translate(1536.352 74.708)">
        <path id="Path_37" data-name="Path 37" d="M475.8,138.661h-7.822v-12.6h1.956v10.9H475.8Z" transform="translate(-467.338 -125.828)" fill="#333"/>
        <path id="Path_38" data-name="Path 38" d="M474,135c0-1.605,1.231-2.593,3.413-2.714l2.515-.149v-.707c0-1.021-.69-1.632-1.842-1.632a1.756,1.756,0,0,0-1.938,1.344h-1.781c.1-1.659,1.518-2.88,3.789-2.88,2.225,0,3.648,1.178,3.648,3.02v6.329H480V136.1h-.044a3.28,3.28,0,0,1-2.9,1.668A2.783,2.783,0,0,1,474,135Zm5.928-.829v-.724l-2.262.14c-1.125.078-1.764.575-1.764,1.362,0,.8.664,1.327,1.676,1.327A2.2,2.2,0,0,0,479.93,134.171Z" transform="translate(-464.455 -124.778)" fill="#333"/>
        <path id="Path_39" data-name="Path 39" d="M488.407,137.557H486.6V136h-.044a2.878,2.878,0,0,1-2.846,1.719,3.069,3.069,0,0,1-3.221-3.4v-5.944h1.886v5.578c0,1.4.662,2.148,1.963,2.148a2.126,2.126,0,0,0,2.182-2.374v-5.351h1.886Z" transform="translate(-461.353 -124.724)" fill="#333"/>
        <path id="Path_40" data-name="Path 40" d="M487.107,128.422h1.8v1.563h.044a2.213,2.213,0,0,1,2.208-1.712,3.394,3.394,0,0,1,.645.071V130.1a2.712,2.712,0,0,0-.846-.1,1.9,1.9,0,0,0-1.965,2.112v5.5h-1.886Z" transform="translate(-458.188 -124.772)" fill="#333"/>
        <path id="Path_41" data-name="Path 41" d="M498.818,134.913c-.262,1.676-1.851,2.872-3.954,2.872-2.7,0-4.33-1.824-4.33-4.723,0-2.88,1.659-4.8,4.252-4.8,2.549,0,4.138,1.8,4.138,4.583v.646h-6.487v.112a2.407,2.407,0,0,0,2.47,2.654,2.082,2.082,0,0,0,2.123-1.344Zm-6.373-2.741h4.593a2.256,2.256,0,0,0-2.253-2.392A2.37,2.37,0,0,0,492.445,132.172Z" transform="translate(-456.548 -124.778)" fill="#333"/>
        <path id="Path_42" data-name="Path 42" d="M497.2,128.425H499v1.536h.043a2.984,2.984,0,0,1,2.889-1.693c2.027,0,3.189,1.292,3.189,3.394v5.946h-1.9V132.03c0-1.381-.645-2.139-1.954-2.139a2.142,2.142,0,0,0-2.182,2.365v5.351H497.2Z" transform="translate(-453.361 -124.775)" fill="#333"/>
        <path id="Path_43" data-name="Path 43" d="M514.214,138.661h-7.821v-12.6h1.956v10.9h5.866Z" transform="translate(-448.964 -125.828)" fill="#333"/>
        <path id="Path_44" data-name="Path 44" d="M512.609,126.989a1.087,1.087,0,1,1,1.091,1.082A1.084,1.084,0,0,1,512.609,126.989Zm.148,2.566h1.885v9.183h-1.885Z" transform="translate(-445.991 -125.905)" fill="#333"/>
        <path id="Path_45" data-name="Path 45" d="M515.291,128.425h1.8v1.536h.043a2.984,2.984,0,0,1,2.889-1.693c2.025,0,3.187,1.292,3.187,3.394v5.946h-1.9V132.03c0-1.381-.644-2.139-1.954-2.139a2.143,2.143,0,0,0-2.183,2.365v5.351h-1.885Z" transform="translate(-444.708 -124.775)" fill="#333"/>
        <path id="Path_46" data-name="Path 46" d="M467.544,145.995c0-2.9,1.536-4.739,3.841-4.739a3.129,3.129,0,0,1,2.881,1.676h.034V137.99h1.9v12.6H474.36v-1.563h-.034a3.179,3.179,0,0,1-2.924,1.721C469.08,150.745,467.544,148.894,467.544,145.995Zm1.929,0c0,1.938.933,3.152,2.426,3.152,1.45,0,2.418-1.231,2.418-3.152,0-1.9-.968-3.152-2.418-3.152C470.406,142.843,469.473,144.066,469.473,145.995Z" transform="translate(-467.544 -120.125)" fill="#333"/>
        <path id="Path_47" data-name="Path 47" d="M482.711,146.839c-.262,1.675-1.851,2.871-3.954,2.871-2.7,0-4.328-1.824-4.328-4.722,0-2.881,1.659-4.8,4.252-4.8,2.547,0,4.138,1.8,4.138,4.583v.646h-6.487v.114a2.407,2.407,0,0,0,2.47,2.654,2.083,2.083,0,0,0,2.121-1.344Zm-6.371-2.741h4.591a2.257,2.257,0,0,0-2.251-2.393A2.369,2.369,0,0,0,476.339,144.1Z" transform="translate(-464.252 -119.074)" fill="#333"/>
        <path id="Path_48" data-name="Path 48" d="M484.6,140.187c2.139,0,3.527,1.187,3.588,2.881h-1.772a1.633,1.633,0,0,0-1.815-1.45c-1.02,0-1.7.5-1.7,1.231,0,.575.418.97,1.415,1.2l1.492.34c1.877.436,2.593,1.169,2.593,2.5,0,1.676-1.563,2.828-3.727,2.828-2.3,0-3.677-1.125-3.851-2.871h1.869c.174.959.829,1.431,1.982,1.431,1.134,0,1.832-.472,1.832-1.223,0-.593-.339-.943-1.344-1.169l-1.493-.349c-1.746-.4-2.611-1.24-2.611-2.575C481.055,141.313,482.488,140.187,484.6,140.187Z" transform="translate(-461.194 -119.074)" fill="#333"/>
        <path id="Path_49" data-name="Path 49" d="M486.877,138.913A1.086,1.086,0,1,1,487.967,140,1.082,1.082,0,0,1,486.877,138.913Zm.148,2.566h1.885v9.183h-1.885Z" transform="translate(-458.298 -120.201)" fill="#333"/>
        <path id="Path_50" data-name="Path 50" d="M489.615,150.247h1.894a2.18,2.18,0,0,0,2.182,1.273,2.075,2.075,0,0,0,2.349-2.095v-1.509H496a3.194,3.194,0,0,1-2.908,1.65c-2.3,0-3.814-1.8-3.814-4.662,0-2.889,1.5-4.7,3.86-4.7a3.205,3.205,0,0,1,2.923,1.719h.035v-1.571h1.833v9.017c0,2.191-1.694,3.623-4.312,3.623C491.455,152.988,489.85,151.835,489.615,150.247Zm6.432-5.335c0-1.885-.968-3.125-2.444-3.125-1.449,0-2.392,1.214-2.392,3.125S492.154,148,493.6,148C495.078,148,496.047,146.807,496.047,144.912Z" transform="translate(-457.147 -119.069)" fill="#333"/>
        <path id="Path_51" data-name="Path 51" d="M496.4,140.35h1.8v1.536h.044a2.984,2.984,0,0,1,2.889-1.693c2.025,0,3.187,1.292,3.187,3.4v5.944h-1.9v-5.578c0-1.379-.646-2.139-1.956-2.139a2.143,2.143,0,0,0-2.182,2.367v5.35H496.4Z" transform="translate(-453.745 -119.071)" fill="#333"/>
      </g>
    </g>
  </g>
</svg>
