<svg xmlns="http://www.w3.org/2000/svg" width="114" height="131" viewBox="0 0 114 131">
  <g id="Group_30" data-name="Group 30" transform="translate(-1091 263)">
    <rect id="Rectangle_43" data-name="Rectangle 43" width="114" height="131" transform="translate(1091 -263)" fill="none"/>
    <path id="Exclusion_1" data-name="Exclusion 1" d="M49.333,95.686H24.273V71.043H0V0H11.028V61.492H24.273v9.551H35.3V86.136h13c15.08,0,23.385-9.232,23.385-26a37.025,37.025,0,0,0-1.542-11.123,21.919,21.919,0,0,0-4.519-8.151,19.086,19.086,0,0,0-7.335-5.012A27.466,27.466,0,0,0,48.3,34.147h-13V61.492H24.274V24.645h25.06A39.949,39.949,0,0,1,63.5,27.025a28.267,28.267,0,0,1,10.569,6.918,30.137,30.137,0,0,1,6.609,11.118,46.112,46.112,0,0,1,2.284,14.981,46.647,46.647,0,0,1-2.277,15.041,30.472,30.472,0,0,1-6.6,11.2,28.273,28.273,0,0,1-10.567,6.991A39.59,39.59,0,0,1,49.333,95.686ZM44.112,71.044H35.3V61.492h8.81v9.552Z" transform="translate(1108 -245)" fill="#fff" stroke="rgba(0,0,0,0)" stroke-miterlimit="10" stroke-width="1"/>
  </g>
</svg>
